<svg xmlns="http://www.w3.org/2000/svg" width="70.56mm" height="70.56mm" viewBox="0 0 200 200"><defs><style>.a{fill:#fff;}</style></defs><title>sorel</title><path d="M200,190.82a9.15,9.15,0,0,1-9.18,9.18H9.18A9.15,9.15,0,0,1,0,190.82V9.18A9.15,9.15,0,0,1,9.18,0H190.82A9.15,9.15,0,0,1,200,9.18Z"/><path class="a" d="M41.22,109.49a10.07,10.07,0,0,1,.61-2.55,24,24,0,0,1-2.76-4,51.48,51.48,0,0,1-5-11,.36.36,0,0,0-.1-.2c-1.73,1.63-6.53,6.43-6.84,8.16-.2.92-2.24,9.18-2.24,12,0,.51,2-.1,2,.2s2.24,6.73,5.31,8.88H46.33c0-1.33-.2-3.57-.92-4.59C44.29,115,41.22,112.76,41.22,109.49ZM128,115.41c-1.12-.51-8.57-3.37-8.57-11.33,0-5.1,5.1-12.55,5.41-13.47a16.38,16.38,0,0,0,.82-3.67c-5.51,5.2-14.29,10.71-20.61,15.61a13.48,13.48,0,0,0-1.33,8.78c.1.41,1.73,0,2,.2.61.51,1,3.67,1.43,3.88.61.2,2.35-.2,2.55.2s1.73,4.49,2.86,5.61h19.08C131.33,120,129.69,116.22,128,115.41Zm46.63-45.1a32,32,0,0,0-7.76-6.94c-.61-.41-.71-2.35-1.63-3.27-.61-.61-3-2-7.24-3.67a17.18,17.18,0,0,0-3.37-.71c-1.84-2.55-4.39-2-5.2-.92A2.5,2.5,0,0,0,149.8,58c.31.31,0,.51-.2.41-2.24-.31-2.35-3.27-2.55-3.27-10.31-.61-24.18-.61-29.18-.1-1.84.2-3.88,1.53-6.94,1.94-2.24.61-23.37-11-44-11-6.63,0-13.47,1.63-16.53,3.06-4,1.94-10.61,7.65-15.61,14.49C30.51,69.39,27.45,76.12,28.27,82c.1.61,3-.31,3.27.2.1.2,0,.51,0,1a6.14,6.14,0,0,0,.41,2.35c.51,1.73.92,3.27,1.22,3.27.51.1,1.84-1.53,2-1.12A71.57,71.57,0,0,0,42,103.06c.71,1,1.22,1.63,1.63,1.73s1.33-1.43,1.43-1.12c2.55,5.82,6.84,13.67,10.71,17.45H72.24c-.1-.82-.41-4.18-1.43-5.31S65,113.06,65,106.53a9.26,9.26,0,0,1,.71-3.57c1.12-2.45,3.27-4.08,4.8-6.12,4.8-6.22,3.67-7.35,4.39-7.86s1.94.61,6.43-4.49a13.51,13.51,0,0,0,1.53.82c.51.2,1.33.61,1.22.71-4,4.8-6.53,5-6.94,5.31s.61,1.63-8,11.53c-.1.1,0,.1,0,.1s.41,0,.82,0a47.74,47.74,0,0,0,6.84-1.53s5.31-8.27,5.51-8.37a12.58,12.58,0,0,1,1.84.31c.92.1,1.84-.2,1.94,0S82,97.55,79.39,103a6.24,6.24,0,0,0-.51,1.22c-.2.61,1.84-.2,1.73.2-.1.92-4.08,6.43-4.08,9.29,0,.51,1.94-.1,1.94.2s1.22,5.1,4.18,7.14H100a9.12,9.12,0,0,0-1.22-4.39c-.71-1.12-4.08-2.14-4.08-4.49,0-2.76,2.65-5.92,6.53-9.18,7.45-6.43,19.39-13.47,24.29-19.8a9.65,9.65,0,0,0,1.43-2.35c.1-.2.82-.2,1.63-.31a19.19,19.19,0,0,1,1.94-.31A9.78,9.78,0,0,1,129,83.06l-1.22,1.53c.71-.41,1.63-1,2.55-1.53a26.14,26.14,0,0,1,3.78-2.14c.1.31-.41,1.63-.41,2.14,0,.1,0,.2.1.2a4.29,4.29,0,0,1,.51-.2c2-1,9.18-5.2,9.49-5s-.31,2,.31,2.24c.2.1,5.82-3.88,13.78-3.67,1,.2,3.16.1,8.67.31a7.1,7.1,0,0,0,4.29-1.22,13.55,13.55,0,0,0,2-2.24c.51-.71,1.53-1.84,1.84-2.24C174.9,71,174.9,70.71,174.59,70.31Zm-10.82-6.22a2.79,2.79,0,0,1-3.16-1c-.41-.71.51-1.43.92-1.53,1.84-.31,2.55,2,2.24,2.55Zm-134,71c0-.92,1-1.53,3.27-1.53a5.37,5.37,0,0,1,2.65.51,2.57,2.57,0,0,1,1.53,1.84h9.9c-.71-4.59-4.8-8.37-13.57-8.37-8,0-13.67,2.86-13.67,8.47,0,10.1,18.16,7.35,18.16,11.33,0,1.22-1.73,1.94-4.29,1.94a7,7,0,0,1-3-.61,2.9,2.9,0,0,1-1.73-2h-9.9c.2,4.8,5.71,8.88,14,8.88,8.67,0,14.8-3,14.8-9.08C48,136.63,29.8,139.08,29.8,135.1Zm104.9,9.18h13.06v-6.12H134.69v-3.78H150.1v-6.12H124.29v26.33h26.43v-6.12h-16Zm31.94-16H156.22v26.33h24.59v-6.12H166.63Z"/><path class="a" d="M68,127.55c-9.9,0-16.53,5.41-16.53,13.67,0,9,6.63,14.08,16.53,14.08h1v-6.53c-.31,0-.71.1-1,.1-5,0-6.22-4.18-6.22-7.55s1.43-7.24,6.12-7.24,6.33,3.67,6.33,7.24c0,4-1.53,7-5.2,7.55v6.53c8.88-.41,15.61-5.31,15.61-14C84.59,134.29,79.29,127.55,68,127.55Zm50.2,21.63c0-5.31-2-6-5.41-7a6.22,6.22,0,0,0,5.31-6.43c0-5.1-3.47-7.55-14.08-7.55h-1.84v6.12h2c2.45,0,4.18.92,4.18,2.76s-1.73,2.45-4.9,2.45H99.39v-5.2h2.76v-6.12h-13v26.43H99.59v-9.18h3.16c4.8,0,5.51,1.12,5.51,4.59a16.75,16.75,0,0,0,.51,4.59h10.51v-.82c-1.22,0-1.12-1.12-1.12-4.59Z"/></svg>